<?xml version="1.0" encoding="utf-8"?>
<!-- Generator: Adobe Illustrator 16.0.4, SVG Export Plug-In . SVG Version: 6.00 Build 0)  -->
<!DOCTYPE svg PUBLIC "-//W3C//DTD SVG 1.1//EN" "http://www.w3.org/Graphics/SVG/1.1/DTD/svg11.dtd">
<svg version="1.1" id="Layer_1" xmlns="http://www.w3.org/2000/svg" xmlns:xlink="http://www.w3.org/1999/xlink" x="0px" y="0px"
	 width="600px" height="600px" viewBox="0 0 600 600" enable-background="new 0 0 600 600" xml:space="preserve">
<circle fill="#31BDB8" cx="300.185" cy="300.084" r="289.425"/>
<path fill="#FFFFFF" d="M110.688,344.613c-64.198,69.291-1.019,206.869,109.039,139.609
	c126.361-78.467,11.21-304.697,138.589-379.085c-137.57,26.495-91.713,214-137.57,292.468
	C167.755,464.863,108.65,392.51,110.688,344.613L110.688,344.613z M481.352,247.469c64.2-69.29,1.021-206.868-109.039-139.611
	c-126.359,78.467-11.209,304.697-138.588,379.086c137.572-26.494,91.713-214,137.572-292.467
	C424.284,127.22,483.39,199.574,481.352,247.469z"/>
<g>
	<path fill="#FFFFFF" d="M105.828,350.082c-0.388,0.49-0.768,0.982-1.14,1.477l0.021,0.264
		C105.076,351.238,105.449,350.658,105.828,350.082L105.828,350.082z M165.158,413.707c5.152-23.535,16.207-41.527,54.856-37.689
		c5.68-16.279,9.286-35.164,12.232-55.263c-22.376-8.349-38.683-11.087-64.544-5.04c-21.157,5.107-35.204,12.152-46.878,22.419
		C120.731,366.025,138.387,402.371,165.158,413.707L165.158,413.707z M428.72,176.899c-5.148,23.535-16.852,41.526-55.501,37.689
		c-5.68,16.279-9.285,35.163-12.231,55.262c22.378,8.349,39.33,11.088,65.189,5.042c21.156-5.107,35.204-12.154,46.879-22.42
		C473.148,224.582,455.491,188.236,428.72,176.899z"/>
</g>
</svg>
