<?xml version="1.0" encoding="utf-8"?>
<!-- Generator: Adobe Illustrator 22.1.0, SVG Export Plug-In . SVG Version: 6.00 Build 0)  -->
<svg version="1.1" id="Layer_1" xmlns="http://www.w3.org/2000/svg" xmlns:xlink="http://www.w3.org/1999/xlink" x="0px" y="0px"
	 viewBox="0 0 278 200" style="enable-background:new 0 0 278 200;" xml:space="preserve">
<style type="text/css">
	.st0{fill:#FFBBBB;}
</style>
<path class="st0" d="M227.9,49.4h-47.7l-7.1-15.2c-1.2-2.7-3.4-4.7-6.2-5.7s-5.7-0.9-8.4,0.4L52.4,78.3c-5.5,2.6-7.9,9.1-5.3,14.6
	L78,159.2c2.5,5.4,8.9,7.8,14.3,5.4h135.5v-5.5H104.2l35.3-16.5h53.3v-5.5h-41.5l35.3-16.5H228v-5.5h-29.6l0.4-0.2
	c5.5-2.6,7.9-9.1,5.3-14.6l-11-23.6h25.7v-5.5h-28.3l-7.7-16.5h45.1V49.4z M161,35.8l-22.8,62.7c-1.4,3.8-4.1,6.8-7.7,8.5
	c-3.6,1.7-7.7,1.9-11.5,0.5L56.3,84.6L161,35.8z M85.5,157.2c-0.3-0.3-0.6-0.7-0.8-1.1l-31-66.3c-0.1-0.1-0.1-0.2-0.1-0.3l49.9,18.2
	L85.5,157.2z M91.4,157.1l17.3-47.5l8.4,3.1c5.1,1.9,10.7,1.6,15.7-0.7c5-2.3,8.7-6.4,10.6-11.6l3.1-8.4l47.5,17.3L91.4,157.1z
	 M197.4,103.6c0.2,0.4,0.3,0.8,0.3,1.2l-49.4-18l18.1-49.7c0,0.1,0.1,0.1,0.1,0.2C166.5,37.2,197.4,103.6,197.4,103.6z"/>
</svg>
