<svg xmlns="http://www.w3.org/2000/svg" width="600" height="600" viewBox="0 0 600 600"><circle fill="#231F20" cx="300.185" cy="300.084" r="289.425"/><path fill="#fff" d="M110.688 344.613c-64.198 69.291-1.019 206.869 109.039 139.611 126.361-78.467 11.21-304.697 138.59-379.087-137.571 26.495-91.714 214-137.571 292.468-52.991 67.258-112.096-5.095-110.058-52.992zM481.352 247.469c64.2-69.29 1.019-206.868-109.039-139.611-126.361 78.467-11.21 304.697-138.59 379.086 137.572-26.494 91.714-214 137.572-292.467 52.989-67.257 112.095 5.097 110.057 52.992z"/><g fill="#fff"><path d="M105.828 350.082c-.388.49-.768.982-1.14 1.477l.021.262c.367-.583.74-1.163 1.119-1.739zM165.158 413.707c5.152-23.535 16.207-41.527 54.856-37.689 5.68-16.281 9.286-35.164 12.232-55.263-22.376-8.349-38.683-11.087-64.544-5.04-21.157 5.107-35.204 12.152-46.878 22.419-.093 27.891 17.563 64.237 44.334 75.573zM428.72 176.899c-5.15 23.535-16.852 41.526-55.501 37.689-5.68 16.279-9.285 35.163-12.232 55.262 22.377 8.349 39.329 11.088 65.19 5.042 21.156-5.107 35.204-12.154 46.879-22.42.092-27.89-17.565-64.236-44.336-75.573z"/></g></svg>