<?xml version="1.0" encoding="utf-8"?>
<!-- Generator: Adobe Illustrator 22.1.0, SVG Export Plug-In . SVG Version: 6.00 Build 0)  -->
<svg version="1.1" id="Layer_1" xmlns="http://www.w3.org/2000/svg" xmlns:xlink="http://www.w3.org/1999/xlink" x="0px" y="0px"
	 viewBox="0 0 600 600" style="enable-background:new 0 0 600 600;" xml:space="preserve">
<path d="M110.7,344.6c-64.2,69.3-1,206.9,109,139.6c126.4-78.5,11.2-304.7,138.6-379.1c-137.6,26.5-91.7,214-137.6,292.5
	C167.8,464.9,108.7,392.5,110.7,344.6L110.7,344.6z M481.4,247.5c64.2-69.3,1-206.9-109-139.6C246,186.3,361.1,412.6,233.7,486.9
	c137.6-26.5,91.7-214,137.6-292.5C424.3,127.2,483.4,199.6,481.4,247.5z"/>
<g>
	<path d="M105.8,350.1c-0.4,0.5-0.8,1-1.1,1.5l0,0.3C105.1,351.2,105.4,350.7,105.8,350.1L105.8,350.1z M165.2,413.7
		c5.2-23.5,16.2-41.5,54.9-37.7c5.7-16.3,9.3-35.2,12.2-55.3c-22.4-8.3-38.7-11.1-64.5-5c-21.2,5.1-35.2,12.2-46.9,22.4
		C120.7,366,138.4,402.4,165.2,413.7L165.2,413.7z M428.7,176.9c-5.1,23.5-16.9,41.5-55.5,37.7c-5.7,16.3-9.3,35.2-12.2,55.3
		c22.4,8.3,39.3,11.1,65.2,5c21.2-5.1,35.2-12.2,46.9-22.4C473.1,224.6,455.5,188.2,428.7,176.9z"/>
</g>
</svg>
